# AST/ASF file generated using VICON BodyLanguage
# -----------------------------------------------
:version 1.10
:name VICON
:units
  mass 1.0
  length 0.45
  angle deg
:documentation
   .ast/.asf automatically generated from VICON data using
   VICON BodyBuilder and BodyLanguage model FoxedUp or BRILLIANT.MOD
:root
   order TX TY TZ RX RY RZ
   axis XYZ
   position 0 0 0  
   orientation 0 0 0 
:bonedata
  begin
     id 1 
     name lhipjoint
     direction 0.643824 -0.71708 0.266994 
     length 2.52133 
     axis 0 0 0  XYZ
  end
  begin
     id 2 
     name lfemur
     direction 0.34202 -0.939693 0  
     length 7.51824  
     axis 0 0 20  XYZ
    dof rx ry rz
    limits (-160.0 20.0)
           (-70.0 70.0)
           (-60.0 70.0)
  end
  begin
     id 3 
     name ltibia
     direction 0.34202 -0.939693 0   
     length 7.3685   
     axis 0 0 20   XYZ
    dof rx
    limits (-10.0 170.0)
  end
  begin
     id 4 
     name lfoot
     direction 0.105419 -0.289636 0.951314   
     length 2.20972   
     axis -90 7.62852e-016 20   XYZ
    dof rx rz
    limits (-45.0 90.0)
           (-70.0 20.0)
  end
  begin
     id 5 
     name ltoes
     direction 1.53549e-011 -4.21833e-011 1   
     length 1.10139   
     axis -90 7.62852e-016 20   XYZ
    dof rx
    limits (-90.0 20.0)
  end
  begin
     id 6 
     name rhipjoint
     direction -0.608823 -0.743445 0.276811   
     length 2.43192  
     axis 0 0 0  XYZ 
  end
  begin
     id 7 
     name rfemur
     direction -0.34202 -0.939693 0   
     length 7.69715   
     axis 0 0 -20   XYZ
    dof rx ry rz
    limits (-160.0 20.0)
           (-70.0 70.0)
           (-70.0 60.0)
  end
  begin
     id 8 
     name rtibia
     direction -0.34202 -0.939693 0   
     length 7.44924   
     axis 0 0 -20   XYZ
    dof rx
    limits (-10.0 170.0)
 end
 begin
     id 9 
     name rfoot
     direction -0.103614 -0.284677 0.953007   
     length 2.22623  
     axis -90 -7.62852e-016 -20   XYZ
    dof rx rz
    limits (-45.0 90.0)
           (-20.0 70.0)
  end
  begin
     id 10 
     name rtoes
     direction -1.53537e-011 -4.22026e-011 1   
     length 1.11   
     axis -90 -7.62852e-016 -20   XYZ
    dof rx
    limits (-90.0 20.0)
  end
  begin
     id 11 
     name lowerback
     direction -0.0101212 0.99662 -0.0815298   
     length 2.08277   
     axis 0 0 0   XYZ
    dof rx ry rz
    limits (-20.0 45.0)
           (-30.0 30.0)
           (-30.0 30.0)
  end
  begin
     id 12 
     name upperback
     direction 0.024314 0.999591 -0.0150645   
     length 2.08524   
     axis 0 0 0   XYZ
    dof rx ry rz
    limits (-20.0 45.0)
           (-30.0 30.0)
           (-30.0 30.0)
  end
  begin
     id 13 
     name thorax
     direction 0.0285959 0.999323 0.0231357   
     length 2.09645   
     axis 0 0 0   XYZ
    dof rx ry rz
    limits (-20.0 45.0)
           (-30.0 30.0)
           (-30.0 30.0)
  end
  begin
     id 14 
     name lowerneck
     direction -0.065512 0.979301 0.191515   
     length 1.63798   
     axis 0 0 0   XYZ
    dof rx ry rz
    limits (-20.0 45.0)
           (-30.0 30.0)
           (-30.0 30.0)
  end
  begin
     id 15 
     name upperneck
     direction 0.0498479 0.98191 -0.182667   
     length 1.68731   
     axis 0 0 0   XYZ
    dof rx ry rz
    limits (-20.0 45.0)
           (-30.0 30.0)
           (-30.0 30.0)
  end
  begin
     id 16
     name head
     direction 0.0230358 0.996257 -0.0833175  
     length 1.69785  
     axis 0 0 0   XYZ
    dof rx ry rz
    limits (-20.0 45.0)
           (-30.0 30.0)
           (-30.0 30.0)
  end
  begin
     id 17 
     name lclavicle
     direction 0.967963 0.201165 -0.150269  
     length 3.63976  
     axis 0 0 0   XYZ
    dof ry rz
    limits (-20.0 10.0)
           (0.0 20.0)
  end
  begin
     id 18 
     name lhumerus
     direction 1 -4.48954e-011 -2.92837e-028   
     length 5.32462   
     axis 180 -30 -90   XYZ
    dof rx ry rz
    limits (-60.0 90.0)
           (-90.0 90.0)
           (-90.0 90.0)
  end
  begin
     id 19
     name lradius
     direction 1 -4.48958e-011 -6.39511e-027   
     length 3.48402   
     axis 180 -30 -90   XYZ
    dof rx
    limits (-10.0 170.0)
  end
  begin
     id 20
     name lwrist
     direction 1 -4.48975e-011 -1.1413e-026   
     length 1.74201   
     axis 6.88575e-015 90 90   XYZ
    dof ry
    limits (-180.0 0.0)
 end
  begin
     id 21 
     name lhand
     direction 1 -4.48899e-011 -2.28192e-026   
     length 0.572476   
     axis 1.45643e-014 90 90   XYZ
    dof rx rz
    limits (-90.0 90.0)
           (-45.0 45.0)
  end
  begin
     id 22 
     name lfingers
     direction 1 -4.49155e-011 -4.5684e-026   
     length 0.461545   
     axis 2.91283e-014 90 90   XYZ
    dof rx
    limits (0.0 90.0)
  end
  begin
     id 23
     name lthumb
     direction 0.707107 -6.34943e-011 0.707107   
     length 0.662688   
     axis -90 45 -2.25915e-014   XYZ
    dof rx rz
    limits (-45.0 45.0)
           (-45.0 45.0)
  end
  begin
     id 24 
     name rclavicle
     direction -0.964103 0.264019 -0.0282629   
     length 3.54491  
     axis 0 0 0   XYZ 
    dof ry rz
    limits (-10.0 20.0)
           (-20.0 0.0)
  end
  begin
     id 25 
     name rhumerus
     direction -1 -4.48964e-011 -2.45032e-027  
     length 5.33589   
     axis 180 30 90   XYZ
    dof rx ry rz
    limits (-90.0 60.0)
           (-90.0 90.0)
           (-90.0 90.0)
  end
  begin
     id 26 
     name rradius
     direction -1 -4.48987e-011 -1.55093e-027   
     length 3.64134   
     axis 180 30 90   XYZ
    dof rx
    limits (-10.0 170.0)
  end
  begin
     id 27 
     name rwrist
     direction -1 -4.4897e-011 -1.14128e-026   
     length 1.82067   
     axis 6.88575e-015 -90 -90   XYZ
    dof ry
    limits (-180.0 0.0)
  end
  begin
     id 28
     name rhand
     direction -1 -4.49021e-011 -2.28301e-026   
     length 0.734811   
     axis 1.45643e-014 -90 -90   XYZ
    dof rx rz
    limits (-90.0 90.0)
           (-45.0 45.0)
  end
  begin
     id 29
     name rfingers
     direction -1 -4.48862e-011 -4.56319e-026   
     length 0.592424   
     axis 2.91283e-014 -90 -90   XYZ
    dof rx
    limits (0.0 90.0)
  end
  begin
     id 30
     name rthumb
     direction -0.707107 -6.34978e-011 0.707107   
     length 0.850605   
     axis -90 -45 2.25915e-014   XYZ
    dof rx rz
    limits (-45.0 45.0)
           (-45.0 45.0)
  end
:hierarchy
  begin
    root lhipjoint rhipjoint lowerback
    lhipjoint lfemur
    lfemur ltibia
    ltibia lfoot
    lfoot ltoes
    rhipjoint rfemur
    rfemur rtibia
    rtibia rfoot
    rfoot rtoes
    lowerback upperback
    upperback thorax
    thorax lowerneck lclavicle rclavicle
    lowerneck upperneck
    upperneck head
    lclavicle lhumerus
    lhumerus lradius
    lradius lwrist
    lwrist lhand lthumb
    lhand lfingers
    rclavicle rhumerus
    rhumerus rradius
    rradius rwrist
    rwrist rhand rthumb
    rhand rfingers
  end

#!OML:ASF F:\VICON\USERDATA\INSTALL\rory3\rory3.ASF
:FULLY-SPECIFIED
:DEGREES
291
root -0.331138 16.0332 -2.15078 1.14955 2.62183 -0.584926
lowerback 11.3666 -0.707645 -2.90463
upperback 0.843994 -1.21197 1.67065
thorax -5.39632 -0.509126 3.58622
lowerneck -26.3695 -2.95961 -10.2201
upperneck 18.0998 -2.19344 8.28134
head 10.3196 -0.703165 4.31363
rclavicle -1.42131e-014 3.18055e-015
rhumerus -31.628 -27.7052 -69.2743
rradius 39.9211
rwrist -34.1458
rhand -20.4114 -22.8625
rfingers 7.12502
rthumb 5.94262 -52.7592
lclavicle -1.42131e-014 3.18055e-015
lhumerus -31.0891 33.2684 70.6535
lradius 35.9726
lwrist 57.578
lhand -16.757 45.1082
lfingers 7.12502
lthumb 9.46976 74.8755
rfemur -28.1338 -1.20011 22.4802
rtibia 71.1684
rfoot -27.3488 1.56321
rtoes -11.6757
lfemur -25.0574 9.84612 -18.276
ltibia 66.6232
lfoot -28.6127 -9.35825
ltoes -16.3589
292
root -0.333095 16.0124 -2.15045 1.1695 2.95386 -0.653664
lowerback 11.2375 -0.80754 -2.6843
upperback 0.933571 -1.31687 1.6089
thorax -5.22745 -0.571366 3.40689
lowerneck -26.4013 -2.99661 -10.1668
upperneck 18.0098 -2.24056 8.21168
head 10.2959 -0.727968 4.26906
rclavicle 1.00883e-014 -6.75868e-015
rhumerus -31.4844 -27.6427 -70.4888
rradius 38.9212
rwrist -33.8719
rhand -21.2561 -23.2944
rfingers 7.12502
rthumb 5.12709 -53.2124
lclavicle 1.00883e-014 -6.75868e-015
lhumerus -30.4613 33.1972 72.2399
lradius 34.9474
lwrist 58.0646
lhand -17.536 46.1814
lfingers 7.12502
lthumb 8.71812 75.9814
rfemur -28.0188 -2.1381 22.5283
rtibia 71.0604
rfoot -27.4514 2.16726
rtoes -9.86184
lfemur -25.0275 9.65741 -18.2452
ltibia 66.4932
lfoot -28.8899 -9.24342
ltoes -15.2679
293
root -0.340451 16.0215 -2.1464 1.25212 3.27197 -0.5386
lowerback 11.0672 -0.863976 -2.80429
upperback 0.946563 -1.40463 1.57623
thorax -5.10985 -0.615013 3.44861
lowerneck -26.3109 -3.04193 -10.2964
upperneck 17.9816 -2.28695 8.31488
head 10.278 -0.747133 4.31972
rclavicle 2.53202e-014 3.97569e-015
rhumerus -31.441 -27.682 -71.2916
rradius 38.1246
rwrist -33.8263
rhand -22.3871 -23.9404
rfingers 7.12502
rthumb 4.03497 -53.8819
lclavicle 2.53202e-014 3.97569e-015
lhumerus -29.9674 33.165 73.6053
lradius 34.1043
lwrist 58.4873
lhand -18.5924 47.4104
lfingers 7.12502
lthumb 7.69859 77.2503
rfemur -27.9671 -3.08991 22.4012
rtibia 70.6991
rfoot -27.4138 2.20037
rtoes -9.20546
lfemur -24.868 9.43751 -18.4343
ltibia 66.0267
lfoot -29.091 -8.96255
ltoes -14.9016
294
root -0.348544 16.05 -2.13786 1.39031 3.5346 -0.37835
lowerback 10.8444 -0.876863 -3.03347
upperback 0.863811 -1.44456 1.58122
thorax -5.06361 -0.629615 3.58482
lowerneck -26.0365 -3.08609 -10.4562
upperneck 17.9723 -2.33324 8.38539
head 10.235 -0.776148 4.36224
rclavicle -1.16538e-014 5.76476e-015
rhumerus -31.589 -28.1085 -71.5013
rradius 37.4361
rwrist -33.7977
rhand -23.2683 -24.2803
rfingers 7.12502
rthumb 3.18399 -54.2363
lclavicle -1.16538e-014 5.76476e-015
lhumerus -29.6816 33.3878 74.6244
lradius 33.552
lwrist 59.1316
lhand -19.7619 48.3798
lfingers 7.12502
lthumb 6.56966 78.2579
rfemur -27.8105 -3.91688 22.2076
rtibia 70.0757
rfoot -27.3434 2.33847
rtoes -8.29855
lfemur -24.6219 9.18109 -18.6947
ltibia 65.3246
lfoot -29.2816 -8.49057
ltoes -15.3297
295
root -0.353255 16.0883 -2.12369 1.44493 3.71008 -0.201812
lowerback 10.6525 -0.869608 -3.24534
upperback 0.796683 -1.45718 1.55465
thorax -5.02139 -0.631551 3.67449
lowerneck -25.8609 -3.13098 -10.5501
upperneck 18.1134 -2.39313 8.41707
head 10.2636 -0.811502 4.38238
rclavicle 1.21259e-014 -8.74653e-015
rhumerus -31.8785 -29.2221 -71.1966
rradius 36.8338
rwrist -33.4389
rhand -23.5726 -23.7818
rfingers 7.12502
rthumb 2.89016 -53.742
lclavicle 1.21259e-014 -8.74653e-015
lhumerus -29.5982 33.5011 75.2941
lradius 33.5753
lwrist 60.4546
lhand -21.191 49.1696
lfingers 7.12502
lthumb 5.18994 79.0861
rfemur -27.2292 -4.61384 21.9385
rtibia 69.1394
rfoot -27.5017 3.33488
rtoes -6.91536
lfemur -24.1778 8.89969 -18.9689
ltibia 64.4826
lfoot -29.2909 -8.08707
ltoes -15.0174
296
root -0.356837 16.1329 -2.1056 1.43086 3.80557 -0.0148333
lowerback 10.4172 -0.840308 -3.48988
upperback 0.756335 -1.4414 1.53886
thorax -4.92813 -0.620363 3.78815
lowerneck -25.6528 -3.18069 -10.773
upperneck 18.424 -2.44945 8.55621
head 10.351 -0.844232 4.46914
rclavicle -1.34677e-014 1.25234e-014
rhumerus -32.4242 -30.5578 -70.4249
rradius 36.5711
rwrist -32.6592
rhand -23.3551 -23.273
rfingers 7.12502
rthumb 3.10019 -53.2302
lclavicle -1.34677e-014 1.25234e-014
lhumerus -29.6929 33.478 75.6195
lradius 33.8745
lwrist 61.5648
lhand -21.966 49.6028
lfingers 7.12502
lthumb 4.44159 79.5362
rfemur -26.4029 -5.23345 21.6319
rtibia 67.9753
rfoot -27.7495 4.88786
rtoes -5.96601
lfemur -23.5907 8.65586 -19.2398
ltibia 63.5031
lfoot -29.0742 -7.69962
ltoes -14.9964
297
root -0.361497 16.1949 -2.09023 1.41991 3.88696 -0.130056
lowerback 10.212 -0.823951 -3.4425
upperback 0.653827 -1.40475 1.61755
thorax -4.92346 -0.601075 3.8351
lowerneck -25.3938 -3.16728 -10.9676
upperneck 18.5421 -2.43351 8.72252
head 10.3515 -0.837188 4.56731
rclavicle 7.42958e-015 2.06736e-014
rhumerus -33.0282 -31.4758 -69.4506
rradius 36.6399
rwrist -32.8251
rhand -23.8564 -23.4631
rfingers 7.12502
rthumb 2.61605 -53.4268
lclavicle 7.42958e-015 2.06736e-014
lhumerus -29.9048 33.7017 75.4454
lradius 34.066
lwrist 61.7182
lhand -21.6584 49.8221
lfingers 7.12502
lthumb 4.73865 79.7491
rfemur -25.5864 -5.66621 21.7076
rtibia 66.6237
rfoot -27.5971 5.88672
rtoes -4.91359
lfemur -23.0251 8.39671 -19.1451
ltibia 62.394
lfoot -28.7115 -7.32315
ltoes -15.7022
298
root -0.364958 16.2934 -2.06865 1.47226 3.9216 -0.22424
lowerback 9.92049 -0.79062 -3.35695
upperback 0.556968 -1.34057 1.6631
thorax -4.86855 -0.570695 3.81934
lowerneck -25.5285 -3.20201 -10.91
upperneck 19.005 -2.46706 8.55071
head 10.5443 -0.873127 4.50314
rclavicle -6.23687e-015 9.34288e-015
rhumerus -33.4365 -32.2802 -68.2683
rradius 36.6069
rwrist -33.2724
rhand -24.4667 -23.8108
rfingers 7.12502
rthumb 2.02666 -53.781
lclavicle -6.23687e-015 9.34288e-015
lhumerus -30.1776 34.1014 74.8303
lradius 34.276
lwrist 61.1864
lhand -20.3428 49.6806
lfingers 7.12502
lthumb 6.0089 79.5754
rfemur -24.8443 -5.92165 21.774
rtibia 65.1471
rfoot -26.8829 6.16216
rtoes -4.02617
lfemur -22.3942 8.05298 -19.0568
ltibia 61.0702
lfoot -28.0592 -7.06776
ltoes -16.0585
299
root -0.366764 16.4134 -2.03877 1.51763 3.7633 -0.0802725
lowerback 9.55026 -0.708775 -3.50155
upperback 0.492684 -1.23925 1.62233
thorax -4.73555 -0.520238 3.83616
lowerneck -25.745 -3.15775 -10.676
upperneck 19.5319 -2.40691 8.20829
head 10.7612 -0.873974 4.36312
rclavicle 1.81391e-014 -6.16232e-015
rhumerus -33.7351 -33.361 -66.6519
rradius 36.0606
rwrist -32.1996
rhand -23.7385 -23.6463
rfingers 7.12502
rthumb 2.72989 -53.6086
lclavicle 1.81391e-014 -6.16232e-015
lhumerus -30.4233 34.7127 73.7022
lradius 34.3434
lwrist 60.2728
lhand -18.7235 49.2122
lfingers 7.12502
lthumb 7.57202 79.0567
rfemur -24.0798 -5.99018 21.5307
rtibia 63.6658
rfoot -25.9225 6.59418
rtoes -2.80917
lfemur -21.5763 7.78593 -19.1918
ltibia 59.5539
lfoot -26.9649 -7.16387
ltoes -15.5885
300
root -0.366714 16.5519 -2.01235 1.5963 3.48961 -0.074567
lowerback 9.23293 -0.607793 -3.48919
upperback 0.376617 -1.0955 1.60841
thorax -4.69284 -0.448811 3.79004
lowerneck -25.5366 -3.09581 -10.6341
upperneck 19.5012 -2.3558 8.19734
head 10.7062 -0.85202 4.35791
rclavicle -1.38901e-014 2.62396e-014
rhumerus -34.0304 -34.0955 -64.9765
rradius 35.7584
rwrist -31.5395
rhand -23.5227 -23.792
rfingers 7.12502
rthumb 2.93831 -53.7515
lclavicle -1.38901e-014 2.62396e-014
lhumerus -30.4823 35.4247 72.2109
lradius 34.2693
lwrist 59.5063
lhand -18.2837 49.0475
lfingers 7.12502
lthumb 7.99648 78.8762
rfemur -23.4683 -5.89905 21.4238
rtibia 62.2135
rfoot -23.7234 5.49467
rtoes 0.0280232
lfemur -20.8084 7.56045 -19.1533
ltibia 57.9476
lfoot -25.4605 -7.47322
ltoes -14.8382
301
root -0.368093 16.6987 -1.99194 1.69084 3.15818 -0.116379
lowerback 8.97039 -0.4942 -3.4826
upperback 0.25291 -0.935108 1.63834
thorax -4.6892 -0.36744 3.79346
lowerneck -25.6399 -3.03557 -10.5527
upperneck 19.6989 -2.27439 8.09754
head 10.7862 -0.822107 4.32701
rclavicle 6.5102e-015 7.55382e-015
rhumerus -34.2968 -34.4485 -63.3344
rradius 35.9421
rwrist -31.7509
rhand -24.1886 -24.2639
rfingers 7.12502
rthumb 2.29525 -54.2312
lclavicle 6.5102e-015 7.55382e-015
lhumerus -30.5948 35.9579 70.5628
lradius 34.4919
lwrist 58.8101
lhand -18.2347 48.6695
lfingers 7.12502
lthumb 8.04382 78.4965
rfemur -23.0292 -5.70253 21.381
rtibia 60.8291
rfoot -21.9428 5.19352
rtoes 1.00358
lfemur -20.054 7.34206 -19.0528
ltibia 56.3181
lfoot -23.7312 -7.54275
ltoes -16.4603
302
root -0.371462 16.8444 -1.97632 1.72452 2.83213 -0.081824
lowerback 8.79019 -0.380229 -3.53817
upperback 0.14158 -0.784513 1.63489
thorax -4.71762 -0.28925 3.80049
lowerneck -25.9216 -2.95642 -10.3969
upperneck 20.0309 -2.158 7.90912
head 10.9425 -0.780821 4.26173
rclavicle 2.34069e-014 -7.95139e-015
rhumerus -34.7604 -35.6564 -61.0844
rradius 35.845
rwrist -30.6702
rhand -23.6972 -23.6154
rfingers 7.12502
rthumb 2.76983 -53.5772
lclavicle 2.34069e-014 -7.95139e-015
lhumerus -30.8039 36.188 68.7575
lradius 34.9478
lwrist 57.8793
lhand -17.9884 47.9935
lfingers 7.12502
lthumb 8.28158 77.8112
rfemur -22.5029 -5.4198 21.2546
rtibia 59.4452
rfoot -20.2315 5.6622
rtoes 2.15023
lfemur -19.2789 7.12779 -18.9939
ltibia 54.7461
lfoot -21.8514 -7.63091
ltoes -19.8149
